<svg width="32" height="32" viewBox="0 0 32 32" fill="none" xmlns="http://www.w3.org/2000/svg">
  <circle cx="16" cy="16" r="15" fill="#E2725B"/>
  <circle cx="16" cy="16" r="13" stroke="#FAF7F2" stroke-width="1.5" fill="none"/>
  <!-- Horizontal curves top to bottom -->
  <path d="M5 8 Q16 4 27 8" stroke="#FAF7F2" stroke-width="1.6" fill="none" stroke-linecap="round"/>
  <path d="M3 12 Q16 8 29 12" stroke="#FAF7F2" stroke-width="1.6" fill="none" stroke-linecap="round"/>
  <path d="M3 16 Q16 12 29 16" stroke="#FAF7F2" stroke-width="1.6" fill="none" stroke-linecap="round"/>
  <path d="M3 20 Q16 16 29 20" stroke="#FAF7F2" stroke-width="1.6" fill="none" stroke-linecap="round"/>
  <path d="M5 24 Q16 20 27 24" stroke="#FAF7F2" stroke-width="1.6" fill="none" stroke-linecap="round"/>
  <!-- Vertical curves left to right -->
  <path d="M9 4 Q6 16 9 28" stroke="#FAF7F2" stroke-width="1.3" fill="none" stroke-linecap="round"/>
  <path d="M16 3 Q13 16 16 29" stroke="#FAF7F2" stroke-width="1.3" fill="none" stroke-linecap="round"/>
  <path d="M23 4 Q26 16 23 28" stroke="#FAF7F2" stroke-width="1.3" fill="none" stroke-linecap="round"/>
  <!-- Yarn tail -->
  <path d="M25 6 Q31 3 30 9" stroke="#FAF7F2" stroke-width="2" fill="none" stroke-linecap="round"/>
</svg>
